<svg
        width="24"
        height="24"
        viewBox="0 0 24 24"
        fill="none"
        xmlns="http://www.w3.org/2000/svg"
>
    <path
            fillRule="evenodd"
            clipRule="evenodd"
            d="M4 5.5C4 4.67157 4.67157 4 5.5 4H18.5C19.3284 4 20 4.67157 20 5.5V14.5C20 15.3284 19.3284 16 18.5 16H8L5 19V16H5.5C4.67157 16 4 15.3284 4 14.5V5.5ZM5.5 2C3.567 2 2 3.567 2 5.5V14.5C2 16.433 3.567 18 5.5 18H6V21.5858C6 22.4767 7.07714 22.9229 7.70711 22.2929L11.4142 18.5858C11.7893 18.2107 12.298 18 12.8284 18H18.5C20.433 18 22 16.433 22 14.5V5.5C22 3.567 20.433 2 18.5 2H5.5Z"
            fill="currentColor"
    />
</svg>
