<?xml version="1.0" encoding="utf-8"?>
<!-- Settings Outline Icon | Matches Dashboard/Calendar/Appointment style -->
<svg
        xmlns="http://www.w3.org/2000/svg"
        width="24"
        height="24"
        viewBox="0 0 24 24"
        fill="none"
        stroke="currentColor"
        stroke-width="1.8"
        stroke-linecap="round"
        stroke-linejoin="round"
        class="icon"
>
    <circle cx="12" cy="12" r="3" />
    <path d="M19.4 15a1.65 1.65 0 0 0 .33 1.82l.06.06a2 2 0 1 1-2.83 2.83l-.06-.06a1.65 1.65 0 0 0-1.82-.33 1.65 1.65 0 0 0-1 1.51V21a2 2 0 1 1-4 0v-.09a1.65 1.65 0 0 0-1-1.51 1.65 1.65 0 0 0-1.82.33l-.06.06a2 2 0 1 1-2.83-2.83l.06-.06a1.65 1.65 0 0 0 .33-1.82 1.65 1.65 0 0 0-1.51-1H3a2 2 0 1 1 0-4h.09c.7 0 1.31-.4 1.51-1a1.65 1.65 0 0 0-.33-1.82l-.06-.06a2 2 0 0 1 2.83-2.83l.06.06c.51.51 1.25.66 1.82.33a1.65 1.65 0 0 0 1-1.51V3a2 2 0 1 1 4 0v.09c0 .7.4 1.31 1 1.51.57.33 1.31.18 1.82-.33l.06-.06a2 2 0 1 1 2.83 2.83l-.06.06c-.51.51-.66 1.25-.33 1.82.2.6.81 1 1.51 1H21a2 2 0 1 1 0 4h-.09c-.7 0-1.31.4-1.51 1z"/>
</svg>
